osimModel_states
version=1
nRows=13
nColumns=17
inDegrees=yes

# SIMM Motion File Header:
name osimModel_states
datacolumns 17
datarows 13
otherdata 1
range 1.45538455 1.51655804
endheader
time	blockToGround_xRotation	blockToGround_yRotation	blockToGround_zRotation	blockToGround_xTranslation	blockToGround_yTranslation	blockToGround_zTranslation	blockToGround_xRotation_u	blockToGround_yRotation_u	blockToGround_zRotation_u	blockToGround_xTranslation_u	blockToGround_yTranslation_u	blockToGround_zTranslation_u	muscle1.activation	muscle1.fiber_length	muscle2.activation	muscle2.fiber_length
      1.45538455	     -0.18678525	     -0.01967959	      0.01088606	     -0.00004729	     -0.00007115	     -0.03342670	      4.56551464	      0.23059776	     -0.89774809	     -0.00004601	     -0.01308255	     -0.16191266	      0.20657577	      0.06486614	      0.00000001	      0.13287392
      1.45905796	     -0.16704789	     -0.01878282	      0.00742412	     -0.00004741	     -0.00015181	     -0.03402520	      6.01623848	      0.25040981	     -0.98252005	     -0.00001630	     -0.02875566	     -0.16339343	      0.20604218	      0.06428657	      0.00000001	      0.13346442
      1.46273137	     -0.14530216	     -0.01783521	      0.00374680	     -0.00004738	     -0.00026004	     -0.03462137	      5.39216971	      0.25709634	     -1.00756388	      0.00003607	     -0.02686136	     -0.16035932	      0.20548544	      0.06370235	      0.00000001	      0.13405944
      1.46870685	     -0.12704179	     -0.01634326	     -0.00199621	     -0.00004682	     -0.00032780	     -0.03554405	      0.27919660	      0.23012718	     -0.88436545	      0.00015007	      0.00737706	     -0.14771344	      0.20453368	      0.06277209	      0.00000001	      0.13500163
      1.47468232	     -0.13951882	     -0.01514626	     -0.00649026	     -0.00004567	     -0.00019589	     -0.03639356	     -3.68659258	      0.16082812	     -0.59750491	      0.00022303	      0.03024815	     -0.13830779	      0.20353776	      0.06190225	      0.00000001	      0.13587694
      1.47955389	     -0.15653526	     -0.01454448	     -0.00864072	     -0.00004454	     -0.00007645	     -0.03706729	     -2.81799796	      0.08506886	     -0.29011656	      0.00023677	      0.01424815	     -0.13941268	      0.20269862	      0.06122994	      0.00000000	      0.13655535
      1.48442546	     -0.16555783	     -0.01428913	     -0.00939151	     -0.00004339	     -0.00007884	     -0.03775699	     -0.86845257	      0.01838106	     -0.01566764	      0.00023585	     -0.01508394	     -0.14365669	      0.20183001	      0.06056127	      0.00000000	      0.13723541
      1.48887548	     -0.16588723	     -0.01437223	     -0.00878676	     -0.00004236	     -0.00018763	     -0.03839992	      0.41078468	     -0.05731973	      0.29700795	      0.00021903	     -0.03004386	     -0.14432386	      0.20100397	      0.05994012	      0.00000000	      0.13786986
      1.49444545	     -0.16812431	     -0.01494278	     -0.00614350	     -0.00004133	     -0.00032030	     -0.03918408	     -1.84020563	     -0.14038384	      0.63312218	      0.00014026	     -0.01156548	     -0.13574958	      0.19992276	      0.05916264	      0.00000000	      0.13866171
      1.49905182	     -0.18405925	     -0.01571331	     -0.00277812	     -0.00004092	     -0.00030460	     -0.03978498	     -4.93764993	     -0.18587027	      0.81456735	      0.00003427	      0.01776056	     -0.12535019	      0.19899423	      0.05854739	      0.00000000	      0.13928354
      1.50488722	     -0.21626194	     -0.01690417	      0.00236279	     -0.00004107	     -0.00014925	     -0.04049303	     -5.13834358	     -0.20983785	      0.92823121	     -0.00007535	      0.02806070	     -0.11921136	      0.19778430	      0.05782262	      0.00000000	      0.14001325
      1.51072263	     -0.23711887	     -0.01812905	      0.00777941	     -0.00004167	     -0.00005403	     -0.04119542	     -1.92863492	     -0.19791347	      0.91065156	     -0.00012476	      0.00129454	     -0.12230295	      0.19653787	      0.05713128	      0.00000000	      0.14071412
      1.51655804	     -0.23849850	     -0.01919812	      0.01273937	     -0.00004251	     -0.00013643	     -0.04192027	      1.47714421	     -0.15504365	      0.76436676	     -0.00016195	     -0.02658337	     -0.12532525	      0.19524401	      0.05643420	      0.00000000	      0.14142690
